<svg xmlns="http://www.w3.org/2000/svg" xmlns:xlink="http://www.w3.org/1999/xlink" viewBox="0,0,256,256" width="256px" height="256px" fill-rule="nonzero"><defs><linearGradient x1="16" y1="4.905" x2="16" y2="27.01" gradientUnits="userSpaceOnUse" id="color-1"><stop offset="0" stop-color="#f2e70c"></stop><stop offset="1" stop-color="#f2e70c"></stop></linearGradient><linearGradient x1="16" y1="5" x2="16" y2="27" gradientUnits="userSpaceOnUse" id="color-2"><stop offset="0" stop-color="#000000" stop-opacity="0.01961"></stop><stop offset="1" stop-color="#000000" stop-opacity="0.14902"></stop></linearGradient><linearGradient x1="16" y1="8.922" x2="16" y2="27.008" gradientUnits="userSpaceOnUse" id="color-3"><stop offset="0" stop-color="#fff80b"></stop><stop offset="0.859" stop-color="#fff80b"></stop><stop offset="1" stop-color="#f2e70c"></stop></linearGradient><linearGradient x1="16" y1="9" x2="16" y2="27" gradientUnits="userSpaceOnUse" id="color-4"><stop offset="0" stop-color="#000000" stop-opacity="0.01961"></stop><stop offset="1" stop-color="#000000" stop-opacity="0.14902"></stop></linearGradient></defs><g fill="none" fill-rule="nonzero" stroke="none" stroke-width="1" stroke-linecap="butt" stroke-linejoin="miter" stroke-miterlimit="10" stroke-dasharray="" stroke-dashoffset="0" font-family="none" font-weight="none" font-size="none" text-anchor="none" style="mix-blend-mode: normal"><g transform="scale(8,8)"><path d="M26,27h-20c-1.105,0 -2,-0.895 -2,-2v-18c0,-1.105 0.895,-2 2,-2h4.027c0.623,0 1.22,0.247 1.66,0.688l0.624,0.624c0.442,0.441 1.039,0.688 1.662,0.688h12.027c1.105,0 2,0.895 2,2v16c0,1.105 -0.895,2 -2,2z" fill="url(#color-1)"></path><path d="M26,7h-12.027c-0.623,0 -1.22,-0.247 -1.66,-0.688l-0.625,-0.625c-0.441,-0.44 -1.038,-0.687 -1.661,-0.687h-4.027c-1.105,0 -2,0.895 -2,2v18c0,1.105 0.895,2 2,2h20c1.105,0 2,-0.895 2,-2v-16c0,-1.105 -0.895,-2 -2,-2zM27.75,25c0,0.965 -0.785,1.75 -1.75,1.75h-20c-0.965,0 -1.75,-0.785 -1.75,-1.75v-18c0,-0.965 0.785,-1.75 1.75,-1.75h4.027c0.56,0 1.087,0.218 1.484,0.615l0.625,0.625c0.491,0.491 1.143,0.761 1.837,0.761h12.027c0.965,0 1.75,0.785 1.75,1.75z" fill="url(#color-2)"></path><path d="M27,27h-22c-1.105,0 -2,-0.895 -2,-2v-14c0,-1.105 0.895,-2 2,-2h22c1.105,0 2,0.895 2,2v14c0,1.105 -0.895,2 -2,2z" fill="url(#color-3)"></path><path d="M27,9h-22c-1.105,0 -2,0.895 -2,2v14c0,1.105 0.895,2 2,2h22c1.105,0 2,-0.895 2,-2v-14c0,-1.105 -0.895,-2 -2,-2zM28.75,25c0,0.965 -0.785,1.75 -1.75,1.75h-22c-0.965,0 -1.75,-0.785 -1.75,-1.75v-14c0,-0.965 0.785,-1.75 1.75,-1.75h22c0.965,0 1.75,0.785 1.75,1.75z" fill="url(#color-4)"></path></g></g></svg>